<?xml version="1.0" standalone="no"?>
<!DOCTYPE svg PUBLIC "-//W3C//DTD SVG 20010904//EN"
 "http://www.w3.org/TR/2001/REC-SVG-20010904/DTD/svg10.dtd">
<svg version="1.0" xmlns="http://www.w3.org/2000/svg"
 width="225.000000pt" height="225.000000pt" viewBox="0 0 225.000000 225.000000"
 preserveAspectRatio="xMidYMid meet">
<metadata>
Created by potrace 1.14, written by Peter Selinger 2001-2017
</metadata>
<g transform="translate(0.000000,225.000000) scale(0.100000,-0.100000)"
fill="#000000" stroke="none">
<path d="M0 1125 l0 -1125 1125 0 1125 0 0 1125 0 1125 -1125 0 -1125 0 0
-1125z m1356 535 c113 -217 242 -465 286 -550 87 -167 180 -346 263 -505 195
-374 208 -400 184 -380 -26 22 -121 112 -297 281 -62 60 -125 114 -140 121
-26 12 -237 94 -607 235 -99 38 -198 78 -221 88 -22 11 -46 20 -52 20 -6 0
-37 11 -69 25 -38 17 -67 24 -88 20 -23 -4 -25 -3 -10 4 19 8 18 10 -10 21
-16 6 -45 13 -63 15 -34 3 -56 14 -31 16 8 0 -11 8 -41 18 -30 10 -63 17 -73
15 -10 -1 -15 1 -12 7 8 11 -43 32 -57 23 -7 -4 -8 -2 -4 4 4 7 -4 14 -21 18
-15 4 -32 9 -38 13 -5 3 -12 6 -15 7 -12 2 -74 33 -68 34 9 0 204 -53 313 -85
156 -46 760 -214 788 -219 15 -3 34 -12 43 -20 8 -9 21 -16 27 -16 7 0 6 4 -3
11 -12 8 -11 9 5 7 12 -2 19 -11 19 -21 -1 -9 3 -17 8 -17 6 0 18 -8 27 -17
30 -33 101 -84 131 -95 17 -5 28 -14 25 -18 -5 -7 24 -30 37 -30 2 0 4 14 4
30 2 26 0 29 -14 18 -13 -11 -14 -10 -8 10 6 18 4 21 -9 15 -15 -5 -16 -1 -11
24 6 26 2 35 -29 66 -30 30 -35 40 -29 63 6 23 4 26 -10 21 -11 -4 -15 -3 -10
4 6 11 -325 679 -336 679 -7 0 -100 -183 -100 -195 0 -4 -18 -43 -40 -87 -22
-44 -40 -86 -40 -93 0 -8 -6 -20 -13 -27 -21 -22 -38 -69 -32 -89 10 -31 -15
-31 -110 -3 -50 15 -103 29 -118 32 -15 2 -27 7 -25 11 16 35 142 278 148 286
4 6 40 73 80 150 168 326 244 465 252 457 4 -4 100 -185 214 -402z m-449 148
c-53 -99 -57 -104 -118 -138 -96 -53 -225 -186 -276 -285 -23 -44 -47 -99 -54
-123 -9 -30 -17 -41 -26 -37 -8 3 -43 13 -79 22 -44 12 -64 22 -64 33 1 28 58
160 100 231 75 126 212 254 345 322 58 30 187 76 213 77 9 0 -7 -39 -41 -102z
m548 62 c254 -100 434 -294 520 -560 40 -124 47 -320 16 -452 -12 -51 -28
-106 -34 -122 l-12 -28 -50 93 -50 94 -1 135 c-1 155 -14 213 -73 335 -67 137
-159 234 -292 308 -55 30 -61 38 -109 128 -27 53 -50 100 -50 104 0 10 58 -4
135 -35z m-80 -730 c3 -5 1 -10 -4 -10 -6 0 -11 5 -11 10 0 6 2 10 4 10 3 0 8
-4 11 -10z m-325 -20 c0 -5 -8 -10 -17 -10 -15 0 -16 2 -3 10 19 12 20 12 20
0z m63 -8 c-4 -9 -8 -10 -13 -2 -3 6 -14 8 -23 4 -10 -3 -17 -1 -17 5 0 6 13
10 29 9 20 -1 27 -6 24 -16z m-123 -12 c-12 -8 -11 -10 7 -10 12 0 25 -5 29
-11 4 -8 9 -7 15 2 6 11 10 11 19 1 5 -6 7 -10 4 -7 -4 3 -12 1 -18 -4 -7 -5
-26 -3 -49 6 -28 11 -35 18 -25 24 7 5 18 9 23 9 6 0 3 -5 -5 -10z m-43 -6
c-3 -3 -12 -4 -19 -1 -8 3 -5 6 6 6 11 1 17 -2 13 -5z m-502 -22 c-3 -3 -11 0
-18 7 -9 10 -8 11 6 5 10 -3 15 -9 12 -12z m-96 -53 c42 -23 77 -42 78 -43 1
-1 9 -35 17 -76 51 -244 235 -445 484 -528 67 -22 95 -26 207 -26 134 0 175 8
291 55 l52 22 81 -44 c81 -44 81 -44 58 -61 -46 -36 -185 -97 -267 -117 -126
-30 -219 -35 -336 -17 -372 56 -660 327 -735 691 -19 90 -25 185 -12 185 3 0
40 -19 82 -41z m212 -2 c-10 -9 -11 -8 -5 6 3 10 9 15 12 12 3 -3 0 -11 -7
-18z m716 -19 c-3 -8 -6 -5 -6 6 -1 11 2 17 5 13 3 -3 4 -12 1 -19z m103 -38
c0 -5 -7 -10 -16 -10 -8 0 -12 5 -9 10 3 6 10 10 16 10 5 0 9 -4 9 -10z m46
-88 c-13 -13 -16 -13 -29 0 -13 13 -12 15 14 15 26 0 28 -2 15 -15z m110 -79
c-10 -10 -19 5 -10 18 6 11 8 11 12 0 2 -7 1 -15 -2 -18z m-1156 -473 c0 -5
-5 -10 -11 -10 -5 0 -7 5 -4 10 3 6 8 10 11 10 2 0 4 -4 4 -10z"/>
<path d="M1605 680 c-3 -5 1 -10 9 -10 9 0 16 5 16 10 0 6 -4 10 -9 10 -6 0
-13 -4 -16 -10z"/>
</g>
</svg>
